<svg id="Layer_1" data-name="Layer 1" xmlns="http://www.w3.org/2000/svg" width="0.4in" height="0.4in" viewBox="0 0 32 32"><title>32</title><circle cx="16" cy="16" r="15.7" fill="#fff"/><path d="M9.8,16.7a6,6,0,1,0,12.1-.1Z" fill="#fee05f"/><polygon points="13.5 26.2 15 23.7 13.3 23.3 13.5 26.2" fill="#fee05f"/><polygon points="9.1 23.8 11.7 22.4 10.4 21.2 9.1 23.8" fill="#fee05f"/><polygon points="6.5 19.5 9.4 19.6 8.9 17.9 6.5 19.5" fill="#fee05f"/><polygon points="18.7 26.1 17 23.7 18.7 23.2 18.7 26.1" fill="#fee05f"/><polygon points="23 23.5 20.3 22.1 21.5 20.9 23 23.5" fill="#fee05f"/><polygon points="25.4 19.1 22.5 19.3 22.9 17.6 25.4 19.1" fill="#fee05f"/><path d="M8.4,15.8H23.1s1.1-2.6-1-4a2.8,2.8,0,0,0-2.7,0s2-4.6-2.6-5.6a3.9,3.9,0,0,0-3,.8,3.1,3.1,0,0,0-.9,3.3h0A1.9,1.9,0,0,0,11,9.7,2.1,2.1,0,0,0,9.5,11a1.8,1.8,0,0,0,.6,2.2S7.7,13,8.4,15.8Z" fill="#848585"/></svg>