<?xml version="1.0" encoding="utf-8"?>
<!-- Generator: Adobe Illustrator 22.0.1, SVG Export Plug-In . SVG Version: 6.00 Build 0)  -->
<svg version="1.1" id="Layer_1" xmlns="http://www.w3.org/2000/svg" xmlns:xlink="http://www.w3.org/1999/xlink" x="0px" y="0px"
	 viewBox="0 0 256 180" style="enable-background:new 0 0 256 180;" xml:space="preserve">
<style type="text/css">
	.st0{fill:#231F20;}
</style>
<title>cloud</title>
<g>
	<path class="st0" d="M114.4,177.5h-2.7c-0.9,0-29.4,0.8-44.8-26.2c-7.1,2.1-27.8,7.2-44.1-2.3c-10.4-6.2-17-17-19.5-32.2
		c-0.1-0.9-3.3-23.4,15-36.9c13.1-9.8,29-7.4,37.4-4.9C52.4,60.8,48.4,23.9,90.9,7c18.1-7.1,35.2-5.9,49.4,3.6
		c11.3,7.7,19.8,19,24.1,32c5.5-3.9,16.2-8.8,30.4-3.2s17.1,19.5,16.2,28.4c6.6,0.1,20.3,1.5,30.4,10.4c7.6,6.8,11.6,16.7,11.8,29.2
		c0.1,10.4-3.8,20.5-10.8,28.2c-6.7,7.4-17.1,14.7-42.8,13.5c-12.4,0.1-24.6-3.5-35-10.3C161.8,150.1,151.6,177.5,114.4,177.5z
		 M111.8,171.5c43.7,1.6,47.5-36.8,47.6-38.4l0.4-5.8l4.4,3.6c15.9,12.8,35.2,12,35.3,11.9c23.5,1.1,32.6-5.2,38.4-11.5
		c6-6.6,9.3-15.2,9.2-24.1c-0.1-10.7-3.5-19.1-9.8-24.7c-11.5-10.4-29.6-8.8-29.7-8.8l-4.3,0.4l1.1-4.1c0.1-0.8,4.5-18.5-11.9-25
		s-25.8,3.1-27.7,5.1l-1.5,1.5l-4-1.5v-2.1c-0.1-4.8-7.2-22.1-22.3-32.1c-12.7-8.4-27.6-9.5-43.9-2.9C46.5,30.8,62.3,76.4,62.9,78.4
		l0.7,1.9L60.8,83l-1.9-0.8c-0.9-0.4-21.9-8.8-37,2.4s-12.6,31-12.6,31.2c2.1,13.4,7.8,22.9,16.6,28c17.1,9.9,41.2,1.1,41.5,0.9
		l2.5-0.9l1.2,2.4C78.8,161.6,94.5,171.4,111.8,171.5z"/>
	<path class="st0" d="M75.5,48.3c-0.9,0-1.7-0.4-2.3-1.1L62,33.8c-1.1-1.3-0.9-3.2,0.4-4.3c1.3-1.1,3.2-0.9,4.3,0.4l11.2,13.5
		c1.1,1.2,1,3-0.1,4.2c-0.6,0.5-1.3,0.8-2.1,0.8L75.5,48.3z"/>
	<path class="st0" d="M103.5,48.3c-0.9,0-1.7-0.4-2.3-1.1L77.1,18.4c-1.1-1.3-0.9-3.1,0.3-4.2c1.3-1.1,3.1-0.9,4.2,0.3l24.1,28.9
		c1.1,1.2,1,3-0.1,4.2C105,48.1,104.3,48.4,103.5,48.3z"/>
	<path class="st0" d="M115.5,29.7c-0.9,0-1.7-0.4-2.3-1.1L98,10.5c-1.1-1.3-0.9-3.1,0.3-4.2s3.1-0.9,4.2,0.3l0,0l15.2,18.1
		c1.1,1.2,1,3-0.1,4.2c-0.6,0.5-1.3,0.8-2.1,0.8V29.7z"/>
	<path class="st0" d="M37,134.1l-1.2-0.3c-0.4-0.1-9.6-4.4-10.6-17.4C24.7,108,28.5,99.9,35.4,95c1.4-0.9,3.2-0.6,4.1,0.8
		c0.9,1.4,0.6,3.2-0.8,4.1l0,0c-5,3.7-7.9,9.7-7.5,15.9c0.7,9.2,6.8,12.2,7.1,12.3c1.6,0.4,2.5,2,2.1,3.6c-0.4,1.4-1.8,2.4-3.3,2.1
		L37,134.1z"/>
	<path class="st0" d="M193.3,68.7c-1.4,0-2.7-1-2.9-2.4c-2.1-9.5-13.8-7.9-14.2-7.9c-1.6,0.2-3.1-0.9-3.3-2.5
		c-0.2-1.6,0.9-3.1,2.5-3.3l0,0c6-0.9,18.3,0.5,21,12.4c0.5,1.6-0.4,3.2-2,3.7c-0.1,0-0.3,0.1-0.4,0.1H193.3z"/>
</g>
</svg>
