<svg id="Layer_1" data-name="Layer 1" xmlns="http://www.w3.org/2000/svg" width="3.6in" height="3.6in" viewBox="0 0 256 256"><title>cloud</title><path d="M120.5,198.4h-2c-.7,0-22,.6-33.5-19.6-5.3,1.6-20.8,5.4-33-1.7-7.8-4.6-12.7-12.7-14.6-24.1-.1-.7-2.5-17.5,11.2-27.6,9.8-7.3,21.7-5.5,28-3.7-2.5-10.6-5.5-38.2,26.3-50.8,13.5-5.3,26.3-4.4,36.9,2.7a46.9,46.9,0,0,1,18,23.9c4.1-2.9,12.1-6.6,22.7-2.4s12.8,14.6,12.1,21.2c4.9.1,15.2,1.1,22.7,7.8,5.7,5.1,8.7,12.5,8.8,21.8a30.8,30.8,0,0,1-8.1,21.1c-5,5.5-12.8,11-32,10.1a46.7,46.7,0,0,1-26.2-7.7C155.9,177.9,148.3,198.4,120.5,198.4Zm-2-4.5c32.7,1.2,35.5-27.5,35.6-28.7l.3-4.3,3.3,2.7c11.9,9.6,26.3,9,26.4,8.9,17.6.8,24.4-3.9,28.7-8.6a26.3,26.3,0,0,0,6.9-18c-.1-8-2.6-14.3-7.3-18.5-8.6-7.8-22.1-6.6-22.2-6.6l-3.2.3.8-3.1c.1-.6,3.4-13.8-8.9-18.7s-19.3,2.3-20.7,3.8l-1.1,1.1-3-1.1v-1.6c-.1-3.6-5.4-16.5-16.7-24-9.5-6.3-20.6-7.1-32.8-2.2C69.7,88.7,81.5,122.8,82,124.3l.5,1.4-2.1,2-1.4-.6c-.7-.3-16.4-6.6-27.7,1.8s-9.4,23.2-9.4,23.3c1.6,10,5.8,17.1,12.4,20.9,12.8,7.4,30.8.8,31,.7l1.9-.7.9,1.8A34.1,34.1,0,0,0,118.5,193.9Z" fill="#231f20"/><path d="M91.4,101.8a2.2,2.2,0,0,1-1.7-.8L81.3,90.9a2.2,2.2,0,0,1,3.5-2.9l8.4,10.1a2.2,2.2,0,0,1-1.7,3.7Z" fill="#231f20"/><path d="M112.3,101.8a2.2,2.2,0,0,1-1.7-.8l-18-21.6A2.2,2.2,0,0,1,96,76.5l18,21.6a2.2,2.2,0,0,1-1.7,3.7Z" fill="#231f20"/><path d="M121.3,87.9a2.2,2.2,0,0,1-1.7-.8L108.2,73.5a2.2,2.2,0,1,1,3.4-2.9l11.4,13.5a2.2,2.2,0,0,1-1.7,3.7Z" fill="#231f20"/><path d="M62.6,165.9l-.9-.2c-.3-.1-7.2-3.3-7.9-13a18.2,18.2,0,0,1,7.6-16,2.2,2.2,0,0,1,2.5,3.7h0a13.7,13.7,0,0,0-5.6,11.9c.5,6.9,5.1,9.1,5.3,9.2a2.2,2.2,0,0,1-.9,4.3Z" fill="#231f20"/><path d="M179.5,117a2.2,2.2,0,0,1-2.2-1.8c-1.6-7.1-10.3-5.9-10.6-5.9a2.2,2.2,0,0,1-.6-4.4c4.5-.7,13.7.4,15.7,9.3A2.2,2.2,0,0,1,180,117Z" fill="#231f20"/></svg>