<svg id="Layer_1" data-name="Layer 1" xmlns="http://www.w3.org/2000/svg" width="250" height="175.1" viewBox="0 0 250 175.1"><title>cloud-update</title><path d="M114.4,177.5h-2.6c-1,0-29.5.8-44.8-26.2-7.1,2.2-27.9,7.2-44.2-2.3-10.4-6.1-17-16.9-19.5-32.2-.1-.9-3.3-23.4,15-36.9,13.1-9.8,29-7.4,37.4-4.9C52.4,60.8,48.4,23.9,90.9,7c18.1-7.1,35.2-5.9,49.4,3.6a62.8,62.8,0,0,1,24,32c5.5-3.9,16.2-8.8,30.4-3.2s17.1,19.5,16.2,28.3c6.5.2,20.3,1.5,30.3,10.5,7.7,6.8,11.7,16.7,11.8,29.1a41.3,41.3,0,0,1-10.8,28.2c-6.7,7.4-17.2,14.7-42.8,13.5a61.6,61.6,0,0,1-35.1-10.3C161.8,150.1,151.6,177.5,114.4,177.5Zm-2.6-6c43.7,1.6,47.4-36.8,47.6-38.4l.4-5.7,4.4,3.6c15.9,12.8,35.2,12,35.3,11.9,23.5,1.1,32.6-5.2,38.4-11.5a35.2,35.2,0,0,0,9.2-24.1c-.1-10.7-3.5-19.1-9.7-24.7-11.6-10.5-29.6-8.9-29.7-8.9l-4.3.4,1-4.1c.2-.8,4.6-18.5-11.9-25s-25.8,3.1-27.6,5.1l-1.5,1.4-4-1.4V47.9c-.2-4.8-7.2-22-22.4-32.1-12.7-8.4-27.5-9.5-43.8-2.9C46.5,30.8,62.3,76.4,62.9,78.4l.7,1.9L60.8,83l-1.9-.8c-.9-.4-21.9-8.9-37,2.4s-12.6,31-12.6,31.1c2.2,13.4,7.8,22.9,16.6,28,17.1,9.9,41.2,1.1,41.5.9l2.5-.9,1.2,2.4A45.7,45.7,0,0,0,111.8,171.5Z" transform="translate(-3 -2.5)" fill="#231f20"/><path d="M75.5,48.3a3.3,3.3,0,0,1-2.3-1L62,33.8a3.1,3.1,0,0,1,4.7-3.9L77.9,43.4a2.9,2.9,0,0,1-.1,4.1,2.6,2.6,0,0,1-2.1.8Z" transform="translate(-3 -2.5)" fill="#231f20"/><path d="M103.5,48.3a3.3,3.3,0,0,1-2.3-1L77.1,18.4a3,3,0,0,1,.4-4.2,2.9,2.9,0,0,1,4.2.3l24,28.9a2.8,2.8,0,0,1-.1,4.1A2.5,2.5,0,0,1,103.5,48.3Z" transform="translate(-3 -2.5)" fill="#231f20"/><path d="M115.5,29.7a2.9,2.9,0,0,1-2.3-1L98,10.5a3,3,0,0,1,4.5-3.9h0l15.3,18.1a2.9,2.9,0,0,1-.2,4.1,2.6,2.6,0,0,1-2.1.8Z" transform="translate(-3 -2.5)" fill="#231f20"/><path d="M37,134.1l-1.2-.3c-.4-.1-9.6-4.4-10.6-17.4A24.4,24.4,0,0,1,35.4,95a2.9,2.9,0,0,1,4.1.8,3,3,0,0,1-.8,4.2h0a18.4,18.4,0,0,0-7.5,15.9c.7,9.2,6.9,12.1,7.1,12.3a2.9,2.9,0,0,1-1.2,5.7Z" transform="translate(-3 -2.5)" fill="#231f20"/><path d="M193.3,68.7a3,3,0,0,1-2.9-2.4c-2.1-9.5-13.8-7.9-14.2-7.9a3,3,0,0,1-.8-5.9h0c6-1,18.3.5,21,12.4a2.9,2.9,0,0,1-2,3.7h-1.1Z" transform="translate(-3 -2.5)" fill="#231f20"/></svg>