<svg id="Layer_1" data-name="Layer 1" xmlns="http://www.w3.org/2000/svg" width="146.9" height="250" viewBox="0 0 146.9 250"><title>humidity-update</title><path d="M128,253c-32.7,0-69.8-24-72.8-62.7-.4-2.1-10.8-64.6,68.6-185.2a5.3,5.3,0,0,1,7.4-1,4.7,4.7,0,0,1,1,1c79.4,120.6,69,183,68.6,185.7C197.8,229,160.7,253,128,253Zm0-239.5C53.4,128.4,63.2,188.7,63.2,189.3c2.6,33.4,35.6,55.6,64.8,55.6s62.1-22.2,64.6-55.2C192.8,188.7,202.6,128.4,128,13.5Z" transform="translate(-54.5 -3)" fill="#231f20"/><path d="M96.4,201.2a4.1,4.1,0,0,1-3.4-1.7L58.7,153.4a4.1,4.1,0,0,1,6.5-4.8l34.3,46.1a4,4,0,0,1-.8,5.7,4.6,4.6,0,0,1-2.5.8Z" transform="translate(-54.5 -3)" fill="#231f20"/><path d="M101.3,168.8a4,4,0,0,1-3.3-1.7L66.2,124.6a4.1,4.1,0,0,1,1.5-5.5,3.9,3.9,0,0,1,5,.7l31.8,42.5a4.1,4.1,0,0,1-.9,5.7,4.1,4.1,0,0,1-2.4.8Z" transform="translate(-54.5 -3)" fill="#231f20"/><path d="M107.5,132a4.4,4.4,0,0,1-3.2-1.5L76.9,96.4a4.1,4.1,0,0,1,6.3-5.1l27.6,34.1a4,4,0,0,1-.6,5.7,3.8,3.8,0,0,1-2.5.9Z" transform="translate(-54.5 -3)" fill="#231f20"/><path d="M157.4,210.8a4,4,0,0,1-4-4.1,3.4,3.4,0,0,1,.7-2.2c20.5-29.3,1.9-68.7,1.8-69.2a4.1,4.1,0,0,1,7.2-3.5c.9,1.9,21,44.2-2.4,77.3A4,4,0,0,1,157.4,210.8Z" transform="translate(-54.5 -3)" fill="#231f20"/></svg>