<svg id="Layer_1" data-name="Layer 1" xmlns="http://www.w3.org/2000/svg" width="3.6in" height="3.6in" viewBox="0 0 256 256"><title>humidity</title><path d="M129,215c-21.7,0-46.3-15.9-48.3-41.6-.3-1.4-7.2-42.9,45.5-122.9a3.5,3.5,0,0,1,5.6,0c52.7,80,45.8,121.4,45.5,123.2C175.3,199.1,150.7,215,129,215Zm0-158.9c-49.5,76.2-43,116.2-43,116.6,1.7,22.2,23.6,36.9,43,36.9s41.2-14.7,42.9-36.6C172,172.3,178.5,132.3,129,56.1Z" fill="#231f20"/><path d="M108,180.6a2.7,2.7,0,0,1-2.2-1.1L83,148.9a2.7,2.7,0,0,1,4.3-3.2l22.8,30.6a2.7,2.7,0,0,1-2.2,4.3Z" fill="#231f20"/><path d="M111.3,159.1a2.7,2.7,0,0,1-2.2-1.1L88,129.8a2.7,2.7,0,0,1,4.3-3.2l21.1,28.2a2.7,2.7,0,0,1-2.2,4.3Z" fill="#231f20"/><path d="M115.4,134.7a2.7,2.7,0,0,1-2.1-1L95.1,111.1a2.7,2.7,0,1,1,4.2-3.4l18.3,22.6a2.7,2.7,0,0,1-2.1,4.4Z" fill="#231f20"/><path d="M148.5,187a2.7,2.7,0,0,1-2.2-4.2c13.6-19.4,1.3-45.6,1.2-45.9a2.7,2.7,0,0,1,4.8-2.3c.6,1.2,13.9,29.3-1.6,51.3A2.7,2.7,0,0,1,148.5,187Z" fill="#231f20"/></svg>