<svg id="Layer_1" data-name="Layer 1" xmlns="http://www.w3.org/2000/svg" width="0.2in" height="0.2in" viewBox="0 0 16 16"><title>16</title><circle cx="8" cy="8" r="7.7" fill="#fff"/><path d="M5,8.4a3,3,0,1,0,6,0Z" fill="#fee05f"/><polygon points="6.8 13.1 7.6 11.9 6.7 11.7 6.8 13.1" fill="#fee05f"/><polygon points="4.6 11.9 5.9 11.2 5.3 10.6 4.6 11.9" fill="#fee05f"/><polygon points="3.3 9.8 4.8 9.8 4.5 9 3.3 9.8" fill="#fee05f"/><polygon points="9.4 13 8.6 11.8 9.4 11.6 9.4 13" fill="#fee05f"/><polygon points="11.5 11.7 10.2 11.1 10.8 10.5 11.5 11.7" fill="#fee05f"/><polygon points="12.7 9.6 11.2 9.7 11.4 8.8 12.7 9.6" fill="#fee05f"/><path d="M4.3,7.9h7.3A1.6,1.6,0,0,0,11,6,1.4,1.4,0,0,0,9.7,6s1-2.3-1.3-2.8a1.9,1.9,0,0,0-1.5.4,1.5,1.5,0,0,0-.4,1.6h0a.9.9,0,0,0-.9-.3,1,1,0,0,0-.7.6.9.9,0,0,0,.3,1.1S3.9,6.6,4.3,7.9Z" fill="#848585"/></svg>