<svg id="Layer_1" data-name="Layer 1" xmlns="http://www.w3.org/2000/svg" width="0.9in" height="0.9in" viewBox="0 0 64 64"><title>64</title><circle cx="32" cy="32" r="31.5" fill="#fff"/><path d="M19.6,33.5a12.2,12.2,0,0,0,24.3-.1Z" fill="#fee05f"/><polygon points="27 52.6 30 47.5 26.6 46.7 27 52.6" fill="#fee05f"/><polygon points="18.1 47.7 23.3 44.8 20.7 42.4 18.1 47.7" fill="#fee05f"/><polygon points="12.8 39 18.7 39.1 17.8 35.8 12.8 39" fill="#fee05f"/><polygon points="37.4 52.3 34.1 47.4 37.5 46.4 37.4 52.3" fill="#fee05f"/><polygon points="46 47 40.7 44.4 43.1 41.8 46 47" fill="#fee05f"/><polygon points="50.9 38.3 45 38.6 45.9 35.2 50.9 38.3" fill="#fee05f"/><path d="M16.7,31.5H46.3s2.3-5.1-2.1-8c0,0-2.1-1.5-5.4,0,0,0,3.9-9.2-5.3-11.3a7.8,7.8,0,0,0-6,1.6,6.3,6.3,0,0,0-1.8,6.7h0a3.7,3.7,0,0,0-3.8-1.3A4.3,4.3,0,0,0,19,21.9a3.5,3.5,0,0,0,1.3,4.4S15.4,25.9,16.7,31.5Z" fill="#848585"/></svg>