<svg id="Layer_1" data-name="Layer 1" xmlns="http://www.w3.org/2000/svg" width="3.6in" height="3.6in" viewBox="0 0 256 256"><title>256</title><circle cx="128" cy="128" r="126.7" fill="#fff"/><path d="M78,133.9a48.9,48.9,0,1,0,97.9-.6Z" fill="#fee05f"/><polygon points="108 210.8 120.1 190.4 106.5 187.1 108 210.8" fill="#fee05f"/><polygon points="72.2 191.1 92.8 179.4 82.5 169.8 72.2 191.1" fill="#fee05f"/><polygon points="50.9 156.1 74.6 156.7 70.8 143.2 50.9 156.1" fill="#fee05f"/><polygon points="149.9 209.6 136.5 190.1 149.9 185.9 149.9 209.6" fill="#fee05f"/><polygon points="184.3 188.4 163.1 177.7 172.8 167.6 184.3 188.4" fill="#fee05f"/><polygon points="203.9 153.4 180.2 154.6 183.7 140.9 203.9 153.4" fill="#fee05f"/><path d="M66.6,126.1H185.6s9.1-20.7-8.3-32c0,0-8.3-6-21.9,0,0,0,15.9-37-21.1-45.3a31.3,31.3,0,0,0-24.2,6.4c-7.3,5.9-10.2,16.3-7.3,26.9,0,.1-.1.2-.2.1A15.1,15.1,0,0,0,87.2,77,17.2,17.2,0,0,0,75.6,87.2c-2,4.9-2.6,11.7,5.1,17.9C80.7,105.1,61,103.5,66.6,126.1Z" fill="#848585"/></svg>