<svg id="Layer_1" data-name="Layer 1" xmlns="http://www.w3.org/2000/svg" width="3.6in" height="3.6in" viewBox="0 0 256 256"><title>snow</title><path d="M128.7,204.6a2.4,2.4,0,0,1-2.4-2.4V55.6a2.4,2.4,0,1,1,4.9,0V202.2A2.4,2.4,0,0,1,128.7,204.6Z" fill="#231f20"/><path d="M128.7,79.9,111.9,60.1a2.4,2.4,0,0,1,3.7-3.2l13,15.4,12.6-15.3A2.4,2.4,0,1,1,145,60Z" fill="#231f20"/><path d="M113.8,204.6a2.4,2.4,0,0,1-1.9-4l16.3-19.9L145,200.6a2.4,2.4,0,0,1-3.7,3.2l-13-15.4-12.6,15.3A2.4,2.4,0,0,1,113.8,204.6Z" fill="#231f20"/><path d="M76.8,183.3a2.4,2.4,0,0,1-1.7-4.2L178.7,75.5a2.4,2.4,0,0,1,3.5,3.5L78.5,182.6A2.4,2.4,0,0,1,76.8,183.3Z" fill="#231f20"/><path d="M163.3,94.4l2.1-25.9a2.6,2.6,0,0,1,2.6-2.2,2.4,2.4,0,0,1,2.2,2.6L168.6,89l19.8-1.9a2.5,2.5,0,0,1,2.7,2.2,2.4,2.4,0,0,1-2.2,2.7Z" fill="#231f20"/><path d="M87,193.5h-.2a2.4,2.4,0,0,1-2.2-2.6l1.7-20.1-19.8,1.9a2.5,2.5,0,0,1-2.7-2.2,2.4,2.4,0,0,1,2.2-2.7l25.6-2.5-2.1,25.9A2.4,2.4,0,0,1,87,193.5Z" fill="#231f20"/><path d="M202.2,132.6H55.6a2.4,2.4,0,1,1,0-4.9H202.2a2.4,2.4,0,0,1,0,4.9Z" fill="#231f20"/><path d="M199.3,147.1a2.4,2.4,0,0,1-1.6-.6l-19.9-16.3,19.8-16.8a2.4,2.4,0,1,1,3.2,3.7l-15.4,13,15.3,12.6a2.4,2.4,0,0,1-1.6,4.3Z" fill="#231f20"/><path d="M55.6,147.1a2.4,2.4,0,0,1-1.6-4.3l15.4-13L54,117.1a2.4,2.4,0,0,1,3.1-3.8L77,129.7,57.2,146.5A2.4,2.4,0,0,1,55.6,147.1Z" fill="#231f20"/><path d="M180.6,184.3a2.4,2.4,0,0,1-1.7-.7L75.2,80a2.4,2.4,0,0,1,3.5-3.5L182.3,180.2a2.4,2.4,0,0,1-1.7,4.2Z" fill="#231f20"/><path d="M168.2,192.5a2.4,2.4,0,0,1-2.4-2.2l-2.5-25.6,25.9,2.1a2.4,2.4,0,0,1,2.2,2.6,2.5,2.5,0,0,1-2.6,2.2l-20.1-1.7,1.9,19.8a2.4,2.4,0,0,1-2.2,2.7Z" fill="#231f20"/><path d="M92.4,93,66.5,90.9a2.4,2.4,0,0,1-2.2-2.6A2.6,2.6,0,0,1,66.9,86l20.1,1.7L85,67.9a2.4,2.4,0,0,1,2.2-2.7,2.5,2.5,0,0,1,2.7,2.2Z" fill="#231f20"/></svg>