<svg id="Layer_1" data-name="Layer 1" xmlns="http://www.w3.org/2000/svg" width="250" height="249.8" viewBox="0 0 250 249.8"><title>snow-update</title><path d="M127.7,252.8a3.9,3.9,0,0,1-3.9-3.9V7.1a4.1,4.1,0,0,1,8.1,0V248.9a4.1,4.1,0,0,1-4,4Z" transform="translate(-3 -3.1)" fill="#231f20"/><path d="M127.7,47.2,100,14.5a4.2,4.2,0,0,1,.4-5.7,4.1,4.1,0,0,1,5.7.5l21.5,25.4L148.4,9.4a4,4,0,1,1,6.2,5h0Z" transform="translate(-3 -3.1)" fill="#231f20"/><path d="M103.2,252.8a3.9,3.9,0,0,1-3.2-6.5l26.9-32.9,27.7,32.9a3.9,3.9,0,0,1-.4,5.6,4,4,0,0,1-5.7-.4h0l-21.4-25.4-20.8,25.3A3.8,3.8,0,0,1,103.2,252.8Z" transform="translate(-3 -3.1)" fill="#231f20"/><path d="M42.2,217.7A4,4,0,0,1,38,214a3.9,3.9,0,0,1,1.3-3.2L210.2,39.9a4.1,4.1,0,1,1,5.8,5.8h0L45,216.6A4.3,4.3,0,0,1,42.2,217.7Z" transform="translate(-3 -3.1)" fill="#231f20"/><path d="M184.8,71.1l3.5-42.7a4.2,4.2,0,0,1,4.3-3.6,3.9,3.9,0,0,1,3.6,4.2h0l-2.7,33.1,32.7-3.1a4.2,4.2,0,0,1,4.5,3.6,4,4,0,0,1-3.5,4.4H227Z" transform="translate(-3 -3.1)" fill="#231f20"/><path d="M59,234.5h-.4a3.9,3.9,0,0,1-3.6-4.2h0l2.8-33.2-32.6,3.1a4.1,4.1,0,0,1-4.5-3.6,3.9,3.9,0,0,1,3.4-4.4h.2L66.6,188l-3.5,42.7a3.9,3.9,0,0,1-4.1,3.8Z" transform="translate(-3 -3.1)" fill="#231f20"/><path d="M249,134.1H7.2a4.1,4.1,0,1,1,0-8.1H249a4.1,4.1,0,0,1,0,8.1Z" transform="translate(-3 -3.1)" fill="#231f20"/><path d="M244.2,158a3.9,3.9,0,0,1-2.7-1l-32.8-26.9,32.7-27.7a4,4,0,0,1,5.3,6.1h0L221.3,130l25.2,20.8a4,4,0,0,1,.7,5.5,4,4,0,0,1-3.4,1.6Z" transform="translate(-3 -3.1)" fill="#231f20"/><path d="M7.2,158A3.9,3.9,0,0,1,3,154.3a4,4,0,0,1,1.5-3.4l25.4-21.4-25.4-21a4,4,0,0,1-.5-5.6,4,4,0,0,1,5.7-.6h0l32.8,27L9.8,157A3.5,3.5,0,0,1,7.2,158Z" transform="translate(-3 -3.1)" fill="#231f20"/><path d="M213.3,219.4a3.9,3.9,0,0,1-2.8-1.2L39.5,47.4a4.1,4.1,0,0,1,5.8-5.8l170.8,171a4,4,0,0,1,.4,5.6,3.9,3.9,0,0,1-3.2,1.3Z" transform="translate(-3 -3.1)" fill="#231f20"/><path d="M192.9,232.9a4,4,0,0,1-4-3.6L184.8,187l42.7,3.5a4.1,4.1,0,0,1,3.7,4.3h-.1a4.1,4.1,0,0,1-4.2,3.6l-33.2-2.8,3.1,32.7a3.9,3.9,0,0,1-3.4,4.4h-.2Z" transform="translate(-3 -3.1)" fill="#231f20"/><path d="M67.9,68.8,25.2,65.3a3.9,3.9,0,0,1-3.7-4.2h0a4.2,4.2,0,0,1,4.3-3.7L59,60.1,55.7,27.4A3.9,3.9,0,0,1,59.1,23h.2a4.4,4.4,0,0,1,4.5,3.7Z" transform="translate(-3 -3.1)" fill="#231f20"/></svg>