<svg id="Layer_1" data-name="Layer 1" xmlns="http://www.w3.org/2000/svg" width="3.6in" height="3.6in" viewBox="0 0 256 256"><title>sunrise</title><path d="M194.4,190H64.5v-2.5a64.9,64.9,0,1,1,129.9,0ZM69.7,184.9H189.3a59.9,59.9,0,0,0-119.6,0Z" fill="#231f20"/><path d="M217.6,190H42.9a2.5,2.5,0,1,1,0-5.1H217.6a2.5,2.5,0,1,1,0,5.1Z" fill="#231f20"/><path d="M73.8,190a2.5,2.5,0,0,1-1.7-4.4l30.8-27a2.5,2.5,0,0,1,3.3,3.8l-30.8,27A2.5,2.5,0,0,1,73.8,190Z" fill="#231f20"/><path d="M95.8,190a2.5,2.5,0,0,1-1.6-4.5L111.1,172a2.5,2.5,0,0,1,3.2,4L97.4,189.4A2.5,2.5,0,0,1,95.8,190Z" fill="#231f20"/><path d="M117.4,190a2.5,2.5,0,0,1-1.4-4.6l15.5-10.8a2.5,2.5,0,0,1,2.9,4.2l-15.5,10.8A2.5,2.5,0,0,1,117.4,190Z" fill="#231f20"/><path d="M128.4,103.5a2.5,2.5,0,0,1-2.5-2.5V66.5a2.5,2.5,0,1,1,5.1,0V101A2.5,2.5,0,0,1,128.4,103.5Z" fill="#231f20"/><path d="M184.3,117.7a2.5,2.5,0,0,1-2.1-4l19.6-28.3a2.5,2.5,0,1,1,4.2,2.9l-19.6,28.3A2.5,2.5,0,0,1,184.3,117.7Z" fill="#231f20"/><path d="M215.3,165.7a2.5,2.5,0,0,1-.8-4.9L247,149.5a2.5,2.5,0,1,1,1.7,4.8l-32.6,11.2Z" fill="#231f20"/><path d="M72.3,118.4a2.5,2.5,0,0,1-2.1-1.1L50.6,89a2.5,2.5,0,1,1,4.2-2.9l19.6,28.3a2.5,2.5,0,0,1-2.1,4Z" fill="#231f20"/><path d="M41.3,166.4h-.8L7.9,155a2.5,2.5,0,1,1,1.7-4.8l32.6,11.2a2.5,2.5,0,0,1-.8,4.9Z" fill="#231f20"/><path d="M191.9,190H67.1a2.5,2.5,0,1,1,0-5.1H191.9a2.5,2.5,0,0,1,0,5.1Z" fill="#231f20"/></svg>