<svg id="Layer_1" data-name="Layer 1" xmlns="http://www.w3.org/2000/svg" width="3.6in" height="3.6in" viewBox="0 0 256 256"><title>sunset</title><path d="M137.8,208A76.5,76.5,0,0,1,117.1,58h0a77,77,0,0,1,14.7-2.6,76.1,76.1,0,0,1,52.9,15.8,3.9,3.9,0,0,1,1.2,4.7,4,4,0,0,1-4.3,2.4,51.5,51.5,0,0,0-11.3-.3,50,50,0,0,0-46.2,46.6A52.1,52.1,0,0,0,138.6,164a50.7,50.7,0,0,0,38,15.9,52.8,52.8,0,0,0,12.2-1.7,4,4,0,0,1,3.9,6.6A76.2,76.2,0,0,1,144,207.8Zm.1-148.2-5.8.2a72.2,72.2,0,0,0-13.8,2.5h0a71.7,71.7,0,1,0,69.1,120.9,58.1,58.1,0,0,1-10.8,1.3,55.8,55.8,0,0,1-41.5-17.4,56.8,56.8,0,0,1-15.7-43,54.7,54.7,0,0,1,50.5-51,56.5,56.5,0,0,1,9.7,0A71.3,71.3,0,0,0,137.9,59.8Zm-20.2.4h0Z" fill="#231f20"/><path d="M96.8,163.7a2.3,2.3,0,0,1-1.4-.5L64.6,140.4a2.4,2.4,0,0,1,2.8-3.8l30.8,22.9a2.4,2.4,0,0,1-1.4,4.2Z" fill="#231f20"/><path d="M93.1,134.9a2.3,2.3,0,0,1-1.3-.4l-25.3-17a2.4,2.4,0,1,1,2.6-3.9l25.3,17a2.3,2.3,0,0,1-1.3,4.3Z" fill="#231f20"/><path d="M89.3,107.4A2.3,2.3,0,0,1,88,107L73.2,98a2.4,2.4,0,0,1,2.5-4l14.8,9a2.4,2.4,0,0,1-1.2,4.4Z" fill="#231f20"/></svg>