<svg id="Layer_1" data-name="Layer 1" xmlns="http://www.w3.org/2000/svg" width="3.6in" height="3.6in" viewBox="0 0 256 256"><title>wind</title><path d="M122.2,177.6c-35.8,0-63.8-7.9-81.4-14.9a2.6,2.6,0,1,1,1.9-4.9c18.7,7.4,49.2,15.9,88.6,14.4,36.2-1.4,64.3-12,77.2-29.1a33.7,33.7,0,0,0,6.1-29.2A20.4,20.4,0,0,0,203.5,100a17.7,17.7,0,0,0-12.9-.8,18.2,18.2,0,0,0-11.9,12.4c-1.9,7.1.3,12,6.9,15h0s4.7,1.8,7.9-.3,3.1-4,3.3-8.1a2.5,2.5,0,0,1,2.7-2.5,2.6,2.6,0,0,1,2.5,2.7c-.3,5.9-2.2,10-5.7,12.3-5.5,3.5-12.5.8-12.7.7-9-4.1-12.5-11.6-9.9-21.2a23.5,23.5,0,0,1,15.3-16,22.7,22.7,0,0,1,16.6,1,25.7,25.7,0,0,1,14.1,17.4,38.8,38.8,0,0,1-7,33.6c-13.8,18.4-43.4,29.7-81.1,31.2Z" fill="#231f20"/><path d="M85.1,143.7q-8,0-16.9-.8a2.6,2.6,0,0,1-2.4-2.8,2.6,2.6,0,0,1,2.8-2.4c28.6,2.4,65.2-.1,77.7-25.6.3-.6,6.7-13.4-2.8-20.6-4.8-3.6-9.7-4.3-13.8-1.8s-5.7,6.3-5.1,9.8c1.1,6.2,6.1,6.3,7.6,6.1a2.6,2.6,0,0,1,.5,5.2c-5.6.5-11.8-2.6-13.2-10.5-1-5.5,2.2-11.9,7.5-15.1s13.1-2.9,19.6,2.1c10.5,7.9,7.4,21.2,4.4,27.1C141.6,133.8,118.9,143.7,85.1,143.7Z" fill="#231f20"/><path d="M68.4,143h-.2c-6.5-.5-13.3-1.4-20.1-2.5a2.6,2.6,0,0,1-2.2-3,2.6,2.6,0,0,1,3-2.2c6.8,1.1,13.4,1.9,19.7,2.5a2.6,2.6,0,0,1-.2,5.2Z" fill="#231f20"/></svg>